<svg fill="#f9fafb" version="1.1" id="Layer_1" xmlns="http://www.w3.org/2000/svg" xmlns:xlink="http://www.w3.org/1999/xlink" viewBox="0 0 512 512" xml:space="preserve"><g id="SVGRepo_bgCarrier" stroke-width="0"></g><g id="SVGRepo_tracerCarrier" stroke-linecap="round" stroke-linejoin="round"></g><g id="SVGRepo_iconCarrier"> <g> <g> <path d="M256,0C114.84,0,0,114.842,0,256s114.84,256,256,256s256-114.842,256-256S397.16,0,256,0z M256,474.537 c-120.501,0-218.537-98.036-218.537-218.537S135.499,37.463,256,37.463S474.537,135.499,474.537,256S376.501,474.537,256,474.537z "></path> </g> </g> <g> <g> <path d="M256,325.162c-17.361,0-33.521,4.95-46.734,14.316c-15.074,10.685-26.328,26.799-33.452,47.894l35.495,11.986 c8.346-24.717,22.965-36.732,44.69-36.733c21.796,0,36.805,12.276,44.611,36.488l35.656-11.497 C323.469,347.927,294.214,325.162,256,325.162z"></path> </g> </g> <g> <g> <path d="M199.805,237.268c-13.772,0-24.976,11.204-24.976,24.976s11.204,24.976,24.976,24.976 c13.767,0,24.971-11.202,24.976-24.976C224.781,248.472,213.579,237.268,199.805,237.268z"></path> </g> </g> <g> <g> <path d="M312.195,237.268c-13.772,0-24.976,11.204-24.976,24.976s11.204,24.976,24.976,24.976 c13.767,0,24.971-11.202,24.976-24.976C337.171,248.472,325.969,237.268,312.195,237.268z"></path> </g> </g> <g> <g> <rect x="272.862" y="156.107" transform="matrix(0.8742 -0.4856 0.4856 0.8742 -42.4821 185.715)" width="128.577" height="37.464"></rect> </g> </g> <g> <g> <rect x="156.115" y="110.543" transform="matrix(0.4856 -0.8742 0.8742 0.4856 -62.8929 242.7831)" width="37.464" height="128.577"></rect> </g> </g> </g></svg>